<?xml version="1.0" encoding="utf-8"?>
<!-- Generator: Adobe Illustrator 16.2.1, SVG Export Plug-In . SVG Version: 6.00 Build 0)  -->
<svg version="1.2" baseProfile="tiny" id="Layer_1" xmlns="http://www.w3.org/2000/svg" xmlns:xlink="http://www.w3.org/1999/xlink"
	 x="0px" y="0px" width="200px" height="130.327148px" viewBox="0 0 200 130.327148" xml:space="preserve">
<g>
	<path fill="#FC4C02" d="M19.161621,40.397949c-3.805664,0-7.35791-0.529785-10.649902-1.575684
		C5.219238,37.769043,2.383301,36.194824,0,34.101074l6.67041-7.949707c2.027344,1.563477,4.166016,2.685059,6.403809,3.359375
		c2.241699,0.676758,4.467773,1.015137,6.673828,1.015137c1.141113,0,1.956055-0.143555,2.456055-0.424805
		c0.501953-0.286621,0.746094-0.678711,0.746094-1.174316v-0.106445c0-0.538086-0.368652-0.98877-1.094238-1.337402
		c-0.725586-0.356445-2.092773-0.728027-4.084961-1.118164c-2.098145-0.429688-4.101562-0.930664-6.002441-1.498535
		c-1.904785-0.564453-3.575684-1.297363-5.016113-2.187988c-1.442871-0.886719-2.589355-2.011719-3.445312-3.362305
		c-0.854004-1.354004-1.28125-3.009766-1.28125-4.964844v-0.106934c0-1.780762,0.346191-3.437012,1.042969-4.965332
		C3.756836,7.749512,4.772949,6.412109,6.10791,5.276855c1.335449-1.139648,2.993164-2.027344,4.969727-2.671875
		c1.967773-0.639648,4.238281-0.959473,6.804199-0.959473c3.625,0,6.800781,0.428711,9.523926,1.284668
		c2.723145,0.848145,5.166992,2.130859,7.34082,3.837891l-6.083496,8.435059c-1.779785-1.28418-3.658203-2.217285-5.631836-2.806152
		c-1.97998-0.588379-3.831543-0.882812-5.57959-0.882812c-0.922852,0-1.607422,0.142578-2.051758,0.427734
		c-0.452637,0.284668-0.667969,0.660156-0.667969,1.121094v0.105469c0,0.501953,0.334473,0.929199,1.013184,1.286133
		c0.679199,0.354004,1.994141,0.729004,3.948242,1.120117c2.385254,0.424805,4.554199,0.941895,6.516602,1.543457
		c1.953125,0.61084,3.639648,1.381348,5.041504,2.32666c1.405273,0.942383,2.494141,2.067383,3.256836,3.388184
		c0.763672,1.316895,1.147461,2.92041,1.147461,4.802734v0.109863c0,1.954102-0.390137,3.719727-1.17627,5.282715
		c-0.780762,1.567383-1.88623,2.890137-3.309082,3.978516c-1.424316,1.08252-3.151855,1.917969-5.179199,2.506348
		C23.966309,40.103027,21.68457,40.397949,19.161621,40.397949L19.161621,40.397949z"/>
	<polygon fill="#FC4C02" points="45.95459,12.902832 34.958984,12.902832 34.958984,2.342285 69.446777,2.342285 
		69.446777,12.902832 58.447754,12.902832 58.447754,39.69873 45.95459,39.69873 45.95459,12.902832 	"/>
	<path fill="#FC4C02" d="M89.086914,20.115234c1.495605,0,2.671875-0.321289,3.521484-0.960449
		c0.854004-0.641602,1.283203-1.534668,1.283203-2.672852v-0.10791c0-1.207031-0.429199-2.108398-1.283203-2.689941
		c-0.849609-0.588379-2.011719-0.879883-3.466309-0.879883h-5.447754v7.311035H89.086914L89.086914,20.115234z M71.203125,2.342285
		h18.258301c3.344238,0,6.092773,0.383789,8.244141,1.148438c2.15625,0.763672,3.886719,1.806641,5.20459,3.123535
		c1.141602,1.135254,1.994629,2.418945,2.566406,3.837402c0.566406,1.423828,0.853516,3.102051,0.853516,5.01416v0.11377
		c0,2.737305-0.658691,5.050781-1.979492,6.93457c-1.312988,1.885254-3.109375,3.384766-5.390625,4.48291l8.698242,12.70166
		H93.40918l-7.047363-10.67334h-0.101562h-2.565918v10.67334H71.203125V2.342285L71.203125,2.342285z"/>
	<polygon fill="#FC4C02" points="179.889648,23.627441 188.032227,39.69873 200,39.69873 179.889648,0 159.781738,39.69873 
		171.753418,39.69873 179.889648,23.627441 	"/>
	<polygon fill="#FC4C02" points="123.918457,23.627441 132.058105,39.69873 144.028809,39.69873 123.918457,0 103.818848,39.69873 
		115.78418,39.69873 123.918457,23.627441 	"/>
	<polygon fill="#FC4C02" points="151.912598,18.412598 143.76709,2.342285 131.796387,2.342285 151.912598,42.041016 
		172.01416,2.342285 160.051758,2.342285 151.912598,18.412598 	"/>
</g>
<g>
	<path fill="#FFFFFF" d="M19.161621,84.541016c-3.805664,0-7.35791-0.529785-10.649902-1.575684
		C5.219238,81.912598,2.383301,80.337891,0,78.244141l6.67041-7.949707c2.027344,1.563477,4.166016,2.685059,6.403809,3.359375
		c2.241699,0.676758,4.467773,1.015137,6.673828,1.015137c1.141113,0,1.956055-0.143555,2.456055-0.424805
		c0.501953-0.286133,0.746094-0.678223,0.746094-1.174316v-0.106445c0-0.538086-0.368652-0.98877-1.094238-1.337402
		c-0.725586-0.356445-2.092773-0.728027-4.084961-1.117676c-2.098145-0.430176-4.101562-0.931152-6.002441-1.498535
		c-1.904785-0.564453-3.575684-1.297363-5.016113-2.188477C5.30957,65.93457,4.163086,64.80957,3.307129,63.458984
		c-0.854004-1.354004-1.28125-3.009766-1.28125-4.964844v-0.106934c0-1.780762,0.346191-3.437012,1.042969-4.965332
		c0.687988-1.529297,1.704102-2.866699,3.039062-4.001953c1.335449-1.13916,2.993164-2.027344,4.969727-2.671875
		c1.967773-0.63916,4.238281-0.959473,6.804199-0.959473c3.625,0,6.800781,0.428711,9.523926,1.285156
		c2.723145,0.847656,5.166992,2.130371,7.34082,3.837402l-6.083496,8.435059c-1.779785-1.28418-3.658203-2.217285-5.631836-2.806152
		c-1.97998-0.588379-3.831543-0.882812-5.57959-0.882812c-0.922852,0-1.607422,0.142578-2.051758,0.428223
		c-0.452637,0.28418-0.667969,0.659668-0.667969,1.120605v0.105957c0,0.501465,0.334473,0.928711,1.013184,1.285645
		c0.679199,0.354492,1.994141,0.729004,3.948242,1.120117c2.385254,0.424805,4.554199,0.941895,6.516602,1.543457
		c1.953125,0.61084,3.639648,1.381836,5.041504,2.327148c1.405273,0.941895,2.494141,2.066895,3.256836,3.387695
		c0.763672,1.316895,1.147461,2.92041,1.147461,4.802734v0.109863c0,1.954102-0.390137,3.719727-1.17627,5.282715
		c-0.780762,1.567383-1.88623,2.890625-3.309082,3.978516c-1.424316,1.08252-3.151855,1.917969-5.179199,2.506348
		C23.966309,84.246582,21.68457,84.541016,19.161621,84.541016L19.161621,84.541016z"/>
	<polygon fill="#FFFFFF" points="45.95459,57.045898 34.958984,57.045898 34.958984,46.485352 69.446777,46.485352 
		69.446777,57.045898 58.447754,57.045898 58.447754,83.841797 45.95459,83.841797 45.95459,57.045898 	"/>
	<path fill="#FFFFFF" d="M89.086914,64.258301c1.495605,0,2.671875-0.321289,3.521484-0.960449
		c0.854004-0.641602,1.283203-1.534668,1.283203-2.672852v-0.10791c0-1.207031-0.429199-2.10791-1.283203-2.689941
		c-0.849609-0.588379-2.011719-0.879883-3.466309-0.879883h-5.447754v7.311035H89.086914L89.086914,64.258301z M71.203125,46.485352
		h18.258301c3.344238,0,6.092773,0.383789,8.244141,1.148438c2.15625,0.763672,3.886719,1.806641,5.20459,3.123535
		c1.141602,1.135254,1.994629,2.418945,2.566406,3.837402c0.566406,1.423828,0.853516,3.102051,0.853516,5.01416v0.11377
		c0,2.737305-0.658691,5.050781-1.979492,6.93457c-1.312988,1.885254-3.109375,3.384766-5.390625,4.48291l8.698242,12.70166
		H93.40918l-7.047363-10.67334h-0.101562h-2.565918v10.67334H71.203125V46.485352L71.203125,46.485352z"/>
	<polygon fill="#FFFFFF" points="179.889648,67.770508 188.032227,83.841797 200,83.841797 179.889648,44.143066 
		159.781738,83.841797 171.753418,83.841797 179.889648,67.770508 	"/>
	<polygon fill="#FFFFFF" points="123.918457,67.770508 132.058105,83.841797 144.028809,83.841797 123.918457,44.143066 
		103.818848,83.841797 115.78418,83.841797 123.918457,67.770508 	"/>
	<polygon fill="#FFFFFF" points="151.912598,62.555664 143.76709,46.485352 131.796387,46.485352 151.912598,86.184082 
		172.01416,46.485352 160.051758,46.485352 151.912598,62.555664 	"/>
</g>
<g>
	<path fill="#B0B0B0" d="M19.161621,128.684082c-3.805664,0-7.35791-0.529785-10.649902-1.575684
		C5.219238,126.055664,2.383301,124.480957,0,122.387207l6.67041-7.949219c2.027344,1.562988,4.166016,2.685059,6.403809,3.359375
		c2.241699,0.67627,4.467773,1.015137,6.673828,1.015137c1.141113,0,1.956055-0.144043,2.456055-0.425293
		c0.501953-0.286133,0.746094-0.678223,0.746094-1.174316v-0.106445c0-0.538086-0.368652-0.988281-1.094238-1.337402
		c-0.725586-0.355957-2.092773-0.727539-4.084961-1.117676c-2.098145-0.430176-4.101562-0.931152-6.002441-1.498535
		c-1.904785-0.564453-3.575684-1.297363-5.016113-2.188477c-1.442871-0.886719-2.589355-2.011719-3.445312-3.362305
		c-0.854004-1.354004-1.28125-3.009277-1.28125-4.964844v-0.106445c0-1.780762,0.346191-3.4375,1.042969-4.96582
		c0.687988-1.529297,1.704102-2.866699,3.039062-4.001953c1.335449-1.13916,2.993164-2.027344,4.969727-2.671875
		c1.967773-0.63916,4.238281-0.959473,6.804199-0.959473c3.625,0,6.800781,0.429199,9.523926,1.285156
		c2.723145,0.847656,5.166992,2.130859,7.34082,3.837402l-6.083496,8.435059c-1.779785-1.28418-3.658203-2.216797-5.631836-2.806152
		c-1.97998-0.588379-3.831543-0.882812-5.57959-0.882812c-0.922852,0-1.607422,0.142578-2.051758,0.428223
		c-0.452637,0.28418-0.667969,0.659668-0.667969,1.120605v0.105957c0,0.501953,0.334473,0.928711,1.013184,1.286133
		c0.679199,0.354004,1.994141,0.728516,3.948242,1.119629c2.385254,0.424805,4.554199,0.942383,6.516602,1.543457
		c1.953125,0.61084,3.639648,1.381836,5.041504,2.327148c1.405273,0.941895,2.494141,2.066895,3.256836,3.388184
		c0.763672,1.316895,1.147461,2.919922,1.147461,4.802246v0.109863c0,1.954102-0.390137,3.719727-1.17627,5.282715
		c-0.780762,1.567383-1.88623,2.890625-3.309082,3.978516c-1.424316,1.083008-3.151855,1.918457-5.179199,2.506348
		C23.966309,128.389648,21.68457,128.684082,19.161621,128.684082L19.161621,128.684082z"/>
	<polygon fill="#B0B0B0" points="45.95459,101.188965 34.958984,101.188965 34.958984,90.628418 69.446777,90.628418 
		69.446777,101.188965 58.447754,101.188965 58.447754,127.985352 45.95459,127.985352 45.95459,101.188965 	"/>
	<path fill="#B0B0B0" d="M89.086914,108.401367c1.495605,0,2.671875-0.321289,3.521484-0.960449
		c0.854004-0.641602,1.283203-1.534668,1.283203-2.672852v-0.10791c0-1.207031-0.429199-2.10791-1.283203-2.689941
		c-0.849609-0.588379-2.011719-0.879883-3.466309-0.879883h-5.447754v7.311035H89.086914L89.086914,108.401367z
		 M71.203125,90.628418h18.258301c3.344238,0,6.092773,0.383789,8.244141,1.148438
		c2.15625,0.763672,3.886719,1.806641,5.20459,3.123535c1.141602,1.135254,1.994629,2.418945,2.566406,3.837891
		c0.566406,1.42334,0.853516,3.101562,0.853516,5.013672v0.11377c0,2.737793-0.658691,5.05127-1.979492,6.93457
		c-1.312988,1.885254-3.109375,3.384766-5.390625,4.483398l8.698242,12.70166H93.40918l-7.047363-10.673828h-0.101562h-2.565918
		v10.673828H71.203125V90.628418L71.203125,90.628418z"/>
	<polygon fill="#B0B0B0" points="179.889648,111.914062 188.032227,127.985352 200,127.985352 179.889648,88.286133 
		159.781738,127.985352 171.753418,127.985352 179.889648,111.914062 	"/>
	<polygon fill="#B0B0B0" points="123.918457,111.914062 132.058105,127.985352 144.028809,127.985352 123.918457,88.286133 
		103.818848,127.985352 115.78418,127.985352 123.918457,111.914062 	"/>
	<polygon fill="#B0B0B0" points="151.912598,106.69873 143.76709,90.628418 131.796387,90.628418 151.912598,130.327148 
		172.01416,90.628418 160.051758,90.628418 151.912598,106.69873 	"/>
</g>
<g>
</g>
<g>
</g>
<g>
</g>
<g>
</g>
<g>
</g>
<g>
</g>
<g>
</g>
<g>
</g>
<g>
</g>
<g>
</g>
<g>
</g>
<g>
</g>
<g>
</g>
<g>
</g>
<g>
</g>
</svg>
